<svg xmlns="http://www.w3.org/2000/svg" xmlns:xlink="http://www.w3.org/1999/xlink" xmlns:lucid="lucid" width="1360" height="1760"><g transform="translate(0 0)" lucid:page-tab-id="0_0"><path d="M0 0h1360v1760H0z" fill="#fff"/><path d="M148 3.34c17.67 0 32 17.9 32 40s-14.33 40-32 40H52c-17.67 0-32-17.9-32-40s14.33-40 32-40z" stroke="#000" stroke-opacity="0" stroke-width="2" fill="#d2d3d5"/><use xlink:href="#a" transform="matrix(1,0,0,1,25,8.337307973667976) translate(51.025 38.6)"/><path d="M340 7.7a8 8 0 0 1 8-8h144a8 8 0 0 1 8 8v104a8 8 0 0 1-8 8H348a8 8 0 0 1-8-8z" stroke="#000" stroke-opacity="0" stroke-width="2" fill="#d85656"/><use xlink:href="#b" transform="matrix(1,0,0,1,345,4.6897915004719835) translate(27.599999999999994 47.8)"/><use xlink:href="#c" transform="matrix(1,0,0,1,345,4.6897915004719835) translate(99.45 47.8)"/><use xlink:href="#d" transform="matrix(1,0,0,1,345,4.6897915004719835) translate(38.525 69.4)"/><path d="M109.94 587.73A10.4 10.4 0 0 1 120 580h152a6.15 6.15 0 0 1 5.94 7.73l-27.88 104.54A10.4 10.4 0 0 1 240 700H88a6.15 6.15 0 0 1-5.94-7.73z" stroke="#000" stroke-opacity="0" stroke-width="2" fill="#eb6b6b"/><use xlink:href="#e" transform="matrix(1,0,0,1,85,585) translate(20.174999999999983 47.8)"/><use xlink:href="#f" transform="matrix(1,0,0,1,85,585) translate(140.825 47.8)"/><use xlink:href="#d" transform="matrix(1,0,0,1,85,585) translate(58.525 69.4)"/><path d="M153.25 138.8a12.6 12.6 0 0 1 13.5 0l86.5 54.94a5.08 5.08 0 0 1 0 8.58l-86.5 54.94a12.6 12.6 0 0 1-13.5 0l-86.5-54.94a5.08 5.08 0 0 1 0-8.58z" stroke="#c54242" stroke-width="4" fill="#fff"/><use xlink:href="#g" transform="matrix(1,0,0,1,65,139.5020231129705) translate(59.075 41)"/><use xlink:href="#h" transform="matrix(1,0,0,1,65,139.5020231129705) translate(84.075 41)"/><use xlink:href="#i" transform="matrix(1,0,0,1,65,139.5020231129705) translate(21.14999999999999 62.6)"/><use xlink:href="#j" transform="matrix(1,0,0,1,65,139.5020231129705) translate(140.85000000000002 62.6)"/><use xlink:href="#k" transform="matrix(1,0,0,1,65,139.5020231129705) translate(58.575 84.20000000000002)"/><use xlink:href="#l" transform="matrix(1,0,0,1,65,139.5020231129705) translate(122.42500000000001 84.20000000000002)"/><path d="M80 348a8 8 0 0 1 8-8h144a8 8 0 0 1 8 8v104a8 8 0 0 1-8 8H88a8 8 0 0 1-8-8z" stroke="#000" stroke-opacity="0" stroke-width="2" fill="#ff8080"/><use xlink:href="#m" transform="matrix(1,0,0,1,85,345) translate(20.700000000000003 37)"/><use xlink:href="#f" transform="matrix(1,0,0,1,85,345) translate(100.3 37)"/><use xlink:href="#n" transform="matrix(1,0,0,1,85,345) translate(4.025000000000006 58.6)"/><use xlink:href="#o" transform="matrix(1,0,0,1,85,345) translate(81.97500000000001 58.6)"/><use xlink:href="#p" transform="matrix(1,0,0,1,85,345) translate(125.97500000000001 58.6)"/><use xlink:href="#q" transform="matrix(1,0,0,1,85,345) translate(45.525 80.20000000000002)"/><path d="M1268 660c17.67 0 32 17.9 32 40s-14.33 40-32 40h-96c-17.67 0-32-17.9-32-40s14.33-40 32-40z" stroke="#000" stroke-opacity="0" stroke-width="2" fill="#d2d3d5"/><use xlink:href="#r" transform="matrix(1,0,0,1,1145,665) translate(47.575 38.6)"/><path d="M360 348.15a8 8 0 0 1 8-8h144a8 8 0 0 1 8 8v104a8 8 0 0 1-8 8H368a8 8 0 0 1-8-8z" stroke="#000" stroke-opacity="0" stroke-width="2" fill="#ffa0a0"/><use xlink:href="#s" transform="matrix(1,0,0,1,365,345.155104249764) translate(13.549999999999997 47.8)"/><use xlink:href="#t" transform="matrix(1,0,0,1,365,345.155104249764) translate(107.45 47.8)"/><use xlink:href="#u" transform="matrix(1,0,0,1,365,345.155104249764) translate(41.05 69.4)"/><path d="M180.5 43.34h71.32A8.18 8.18 0 0 1 260 51.5a8.18 8.18 0 0 0 8.18 8.2h55.44" stroke="#333" fill="none"/><path d="M180.5 43.84h-.53l.03-.5-.02-.5h.53z" stroke="#333" stroke-width=".05" fill="#333"/><path d="M338.38 59.7l-14.26 4.63v-9.27z" stroke="#333" fill="#333"/><path d="M161 321.5h-2v-11.55h2zm0-30.22h-2v-29.05h2z" stroke="#008a0e" stroke-width=".05" fill="#008a0e"/><path d="M160 261.23l1-.06v1.1h-2v-1.1z" fill="#008a0e"/><path d="M160 261.2l1.03-.05v1.13h-2.06v-1.13zm-.97 1.03h1.94v-1.03l-.97.06-.97-.06z" stroke="#008a0e" stroke-width=".05" fill="#008a0e"/><path d="M160 336.76l-4.63-14.26h9.26z" fill="#008a0e"/><path d="M160 340l-6-18.5h12zm-3.26-16.5l3.26 10.03 3.26-10.03z" stroke="#008a0e" stroke-width=".05" fill="#008a0e"/><use xlink:href="#v" transform="matrix(1,0,0,1,146.19444444444446,291.2816632825275) translate(0 12.444444444444446)"/><path d="M407.82 199.03h-149.2v-2h149.2zm123.9-140.2l1.68.4 1.6.66 1.47.9 1.3 1.1 1.13 1.32.9 1.47.67 1.6.4 1.67.13 1.68v118.42l-.13 1.68-.4 1.68-.67 1.6-.9 1.47-1.12 1.3-1.3 1.13-1.5.9-1.58.66-1.68.4-1.68.13H442.3v-2h87.66l1.45-.12 1.38-.32 1.3-.54 1.2-.73 1.08-.9.92-1.08.74-1.2.54-1.3.33-1.38.1-1.45V69.72l-.1-1.45-.34-1.37-.54-1.3-.74-1.2-.92-1.07-1.07-.92-1.22-.73-1.3-.54-1.37-.33-1.44-.1H518.5v-2h11.54z" stroke="#e81313" stroke-width=".05" fill="#e81313"/><path d="M258.64 199.03h-1.13l.1-1-.1-1h1.14z" fill="#e81313"/><path d="M258.67 199.05h-1.18l.1-1.02-.1-1.03h1.17zm-1.13-2l.1.98-.1.97h1.07v-1.95z" stroke="#e81313" stroke-width=".05" fill="#e81313"/><path d="M517.5 64.33l-14.26-4.64 14.26-4.65z" fill="#e81313"/><path d="M518.5 65.7l-18.5-6 18.5-6.02zm-12.03-6l10.03 3.25v-6.52z" stroke="#e81313" stroke-width=".05" fill="#e81313"/><use xlink:href="#w" transform="matrix(1,0,0,1,407.8191244052841,188.69414365759334) translate(0 12.444444444444446)"/><path d="M540 15.92a8 8 0 0 1 8-8h723.65a8 8 0 0 1 8 8v19.72a8 8 0 0 1-8 8H548a8 8 0 0 1-8-8z" stroke="#000" stroke-opacity="0" stroke-width="2" fill="#fff" fill-opacity="0"/><use xlink:href="#x" transform="matrix(1,0,0,1,544,11.920847623941764) translate(211.1025925925926 23.657777777777778)"/><use xlink:href="#y" transform="matrix(1,0,0,1,544,11.920847623941764) translate(251.31 23.657777777777778)"/><use xlink:href="#z" transform="matrix(1,0,0,1,544,11.920847623941764) translate(267.2618518518519 23.657777777777778)"/><use xlink:href="#A" transform="matrix(1,0,0,1,544,11.920847623941764) translate(382.1297530864198 23.657777777777778)"/><use xlink:href="#B" transform="matrix(1,0,0,1,544,11.920847623941764) translate(419.93345679012344 23.657777777777778)"/><path d="M746.25 42.48h332.84M746.27 42.48h-1.02M1079.06 42.48h1.03" stroke="#a9afb8" stroke-width="2" fill="none"/><path d="M540 51.64a8 8 0 0 1 8-8h724.48a8 8 0 0 1 8 8V52a8 8 0 0 1-8 8H548a8 8 0 0 1-8-8z" stroke="#000" stroke-opacity="0" stroke-width="2" fill="#fff" fill-opacity="0"/><use xlink:href="#C" transform="matrix(1,0,0,1,544.0000000000002,47.64300061583874) translate(302.82496913580246 14.917037037037037)"/><use xlink:href="#D" transform="matrix(1,0,0,1,544.0000000000002,47.64300061583874) translate(360.4835082304527 14.917037037037037)"/><use xlink:href="#E" transform="matrix(1,0,0,1,544.0000000000002,47.64300061583874) translate(384.23525720164605 14.917037037037037)"/><path d="M420 120.2a7.07 7.07 0 0 1-7.07 7.06h-244.1" stroke="#333" fill="none"/><path d="M420.5 120.2h-1v-.5h1z" stroke="#333" stroke-width=".05" fill="#333"/><path d="M161.23 133.77l7.8-12.8 6.04 7.03z" stroke="#333" fill="#333"/><path d="M240.5 400h103.12" stroke="#333" fill="none"/><path d="M240.5 400.5h-.5v-1h.5z" stroke="#333" stroke-width=".05" fill="#333"/><path d="M358.38 400l-14.26 4.63v-9.26z" stroke="#333" fill="#333"/><path d="M680 233a8 8 0 0 1 8-8h144a8 8 0 0 1 8 8v104a8 8 0 0 1-8 8H688a8 8 0 0 1-8-8z" stroke="#000" stroke-opacity="0" stroke-width="2" fill="#ffa0a0"/><use xlink:href="#F" transform="matrix(1,0,0,1,685,230) translate(20.700000000000003 47.8)"/><use xlink:href="#t" transform="matrix(1,0,0,1,685,230) translate(100.3 47.8)"/><use xlink:href="#G" transform="matrix(1,0,0,1,685,230) translate(6.074999999999989 69.4)"/><use xlink:href="#H" transform="matrix(1,0,0,1,685,230) translate(78.975 69.4)"/><path d="M520.5 400.15H588a12 12 0 0 0 12-12v-91a12 12 0 0 1 12-12h51.62" stroke="#333" fill="none"/><path d="M520.5 400.65h-.5v-1h.5z" stroke="#333" stroke-width=".05" fill="#333"/><path d="M678.38 285.15l-14.26 4.64v-9.28z" stroke="#333" fill="#333"/><path d="M160 460.5V510a10 10 0 0 0 10 10 10 10 0 0 1 10 10v33.62" stroke="#333" fill="none"/><path d="M160.5 460.5h-1v-.5h1z" stroke="#333" stroke-width=".05" fill="#333"/><path d="M180 578.38l-4.63-14.26h9.26z" stroke="#333" fill="#333"/><path d="M95.5 640H42a12 12 0 0 1-12-12V116.34a12 12 0 0 1 12-12h49.38A4.62 4.62 0 0 0 96 99.72" stroke="#333" fill="none"/><path d="M95.87 640.5h-.38v-1h.63z" stroke="#333" stroke-width=".05" fill="#333"/><path d="M96 84.95l4.64 14.27h-9.28z" stroke="#333" fill="#333"/><path d="M909.94 467.73A10.4 10.4 0 0 1 920 460h152a6.15 6.15 0 0 1 5.94 7.73l-27.88 104.54A10.4 10.4 0 0 1 1040 580H888a6.15 6.15 0 0 1-5.94-7.73z" stroke="#000" stroke-opacity="0" stroke-width="2" fill="#eb6b6b"/><use xlink:href="#e" transform="matrix(1,0,0,1,885,465) translate(20.174999999999983 47.8)"/><use xlink:href="#f" transform="matrix(1,0,0,1,885,465) translate(140.825 47.8)"/><use xlink:href="#I" transform="matrix(1,0,0,1,885,465) translate(61.05 69.4)"/><path d="M760 345.5v45a12 12 0 0 0 12 12h196a12 12 0 0 1 12 12v29.12" stroke="#333" fill="none"/><path d="M760.5 345.5h-1v-.5h1z" stroke="#333" stroke-width=".05" fill="#333"/><path d="M980 458.38l-4.63-14.26h9.26z" stroke="#333" fill="#333"/><path d="M1089.94 284.23a10.4 10.4 0 0 1 10.06-7.73h152a6.15 6.15 0 0 1 5.94 7.73l-27.88 104.54a10.4 10.4 0 0 1-10.06 7.73h-152a6.15 6.15 0 0 1-5.94-7.73z" stroke="#000" stroke-opacity="0" stroke-width="2" fill="#eb6b6b"/><use xlink:href="#J" transform="matrix(1,0,0,1,1065,281.50197311297046) translate(24.07499999999999 47.8)"/><use xlink:href="#f" transform="matrix(1,0,0,1,1065,281.50197311297046) translate(136.925 47.8)"/><use xlink:href="#I" transform="matrix(1,0,0,1,1065,281.50197311297046) translate(61.05 69.4)"/><path d="M840.5 285H946a12 12 0 0 1 12 12v27.5a12 12 0 0 0 12 12h89.62" stroke="#333" fill="none"/><path d="M840.5 285.5h-.5v-1h.5z" stroke="#333" stroke-width=".05" fill="#333"/><path d="M1074.38 336.5l-14.26 4.64v-9.27z" stroke="#333" fill="#333"/><path d="M1173.1 64.07a13.53 13.53 0 0 1 13.8 0l106.2 62.8a4.73 4.73 0 0 1 0 8.13l-106.2 62.8a13.53 13.53 0 0 1-13.8 0L1066.9 135a4.73 4.73 0 0 1 0-8.14z" stroke="#c54242" stroke-width="4" fill="#fff"/><g><use xlink:href="#K" transform="matrix(1,0,0,1,1065,64.99999999999999) translate(9.949999999999989 58.8)"/><use xlink:href="#L" transform="matrix(1,0,0,1,1065,64.99999999999999) translate(34.94999999999999 58.8)"/><use xlink:href="#M" transform="matrix(1,0,0,1,1065,64.99999999999999) translate(71.85 58.8)"/><use xlink:href="#N" transform="matrix(1,0,0,1,1065,64.99999999999999) translate(163.2 58.8)"/><use xlink:href="#O" transform="matrix(1,0,0,1,1065,64.99999999999999) translate(43.05 80.4)"/><use xlink:href="#P" transform="matrix(1,0,0,1,1065,64.99999999999999) translate(103 80.4)"/><use xlink:href="#l" transform="matrix(1,0,0,1,1065,64.99999999999999) translate(177.95 80.4)"/></g><path d="M1160 276v-26.9a10 10 0 0 1 10-10 10 10 0 0 0 10-10v-11.04" stroke="#333" fill="none"/><path d="M1160.5 276.5h-1v-.5h1z" stroke="#333" stroke-width=".05" fill="#333"/><path d="M1180 203.3l4.63 14.26h-9.27z" stroke="#333" fill="#333"/><path d="M850.44 131.93h-80.4l-1.45.1-1.38.34-1.3.54-1.2.75-1.08.92-.92 1.07-.74 1.2-.54 1.3-.33 1.38-.1 1.45v65.53h-2v-65.6l.13-1.7.4-1.67.67-1.6.9-1.47 1.12-1.3 1.3-1.13 1.5-.9 1.58-.66 1.68-.4 1.68-.14h80.48zm211.1 0h-183.5v-2h183.5z" stroke="#008a0e" stroke-width=".05" fill="#008a0e"/><path d="M1062.55 130.93l.1 1h-1.12v-2h1.13z" fill="#008a0e"/><path d="M1062.58 130.93l.1 1.03h-1.18v-2.05h1.18zm-1.03-.97v1.95h1.08l-.1-.97.1-.97z" stroke="#008a0e" stroke-width=".05" fill="#008a0e"/><path d="M760 221.76l-4.63-14.26h9.26z" fill="#008a0e"/><path d="M760 225l-6-18.5h12zm-3.26-16.5l3.26 10.03 3.26-10.03z" stroke="#008a0e" stroke-width=".05" fill="#008a0e"/><g><use xlink:href="#Q" transform="matrix(1,0,0,1,850.4369704331586,121.5982113508721) translate(0 12.444444444444446)"/></g><path d="M101 101.92l-.04.47-.13.52-.2.5-.3.48-.35.4-.42.37-.47.3-.52.2-.53.13-.5.04h-55.5l-1.77.14-1.68.4-1.6.66-1.46.9-1.32 1.12-1.12 1.3-.9 1.48-.66 1.6-.4 1.68-.14 1.76v641.58l.14 1.76.4 1.68.66 1.6.9 1.46 1.12 1.32 1.32 1.12 1.47.9 1.6.66 1.68.4 1.76.14h586.4v2H41.97l-2-.16-1.98-.47-1.88-.78-1.74-1.08-1.55-1.32-1.32-1.56-1.07-1.74-.77-1.88-.47-2-.16-1.98V116.3l.16-2 .47-1.98.78-1.9 1.08-1.73 1.32-1.56 1.56-1.32 1.74-1.07 1.88-.78 2-.48 1.98-.16h55.5l.28-.02.22-.06.22-.1.2-.1.18-.16.15-.18.13-.2.1-.22.05-.23.02-.3zm1226.48 28.17l1.98.47 1.9.78 1.73 1.06 1.54 1.34 1.33 1.55 1.06 1.73.78 1.88.5 2 .15 2v615.14l-.16 2-.5 1.98-.77 1.88-1.06 1.74-1.33 1.56-1.55 1.32-1.75 1.07-1.88.77-2 .47-1.98.16H661.4v-2h664l1.77-.14 1.67-.4 1.6-.66 1.47-.9 1.32-1.12 1.12-1.32.9-1.47.66-1.6.4-1.68.15-1.76v-615l-.14-1.75-.4-1.67-.66-1.6-.9-1.46-1.12-1.3-1.3-1.13-1.48-.9-1.6-.67-1.67-.4-1.76-.14h-26.95v-2h27.04z" stroke="#e81313" stroke-width=".05" fill="#e81313"/><path d="M1298.47 131.93h-1.13l.1-1-.1-1h1.13z" fill="#e81313"/><path d="M1298.5 131.96h-1.18l.1-1.03-.1-1.02h1.18zm-1.13-2l.1.97-.1.98h1.08v-1.94z" stroke="#e81313" stroke-width=".05" fill="#e81313"/><path d="M104.64 100.84h-9.28L100 86.57z" fill="#e81313"/><path d="M106 101.84H94l6-18.5zm-9.26-2h6.52L100 89.8z" stroke="#e81313" stroke-width=".05" fill="#e81313"/><g><use xlink:href="#R" transform="matrix(1,0,0,1,628.4511028904292,759.2) translate(0.004999999999999005 14.4)"/></g><path d="M1064.5 520h83.5a12 12 0 0 0 12-12v-95.1" stroke="#333" fill="none"/><path d="M1064.5 520.5h-.63l.26-1h.38z" stroke="#333" stroke-width=".05" fill="#333"/><path d="M1160 398.12l4.63 14.27h-9.27z" stroke="#333" fill="#333"/><path d="M575.27 467.9a10.4 10.4 0 0 1 10.06-7.75h163.34a6.15 6.15 0 0 1 5.94 7.74L721.4 592.4a10.4 10.4 0 0 1-10.06 7.74H548a6.15 6.15 0 0 1-5.94-7.74z" stroke="#000" stroke-opacity="0" stroke-width="2" fill="#eb6b6b"/><g><use xlink:href="#S" transform="matrix(1,0,0,1,545.0000000000002,465.155104249764) translate(19.125 68.60000000000001)"/><use xlink:href="#T" transform="matrix(1,0,0,1,545.0000000000002,465.155104249764) translate(92.025 68.60000000000001)"/><use xlink:href="#I" transform="matrix(1,0,0,1,545.0000000000002,465.155104249764) translate(119.97500000000001 68.60000000000001)"/></g><path d="M760 345.5v179.05a5.6 5.6 0 0 1-5.6 5.6" stroke="#333" fill="none"/><path d="M760.5 345.5h-1v-.5h1z" stroke="#333" stroke-width=".05" fill="#333"/><path d="M739.63 530.15l14.26-4.63v9.27z" stroke="#333" fill="#333"/><path d="M648.34 600.65V688a12 12 0 0 0 12 12h463.28" stroke="#333" fill="none"/><path d="M648.84 600.67h-1v-.5h1z" stroke="#333" stroke-width=".05" fill="#333"/><path d="M1138.38 700l-14.26 4.63v-9.26z" stroke="#333" fill="#333"/><defs><path fill="#3d4752" d="M30-248c118-7 216 8 213 122C240-48 200 0 122 0H30v-248zM63-27c89 8 146-16 146-99s-60-101-146-95v194" id="U"/><path fill="#3d4752" d="M100-194c63 0 86 42 84 106H49c0 40 14 67 53 68 26 1 43-12 49-29l28 8c-11 28-37 45-77 45C44 4 14-33 15-96c1-61 26-98 85-98zm52 81c6-60-76-77-97-28-3 7-6 17-6 28h103zm-74-98c8-23 27-35 38-54h36v5l-58 49H78" id="V"/><path fill="#3d4752" d="M115-194c53 0 69 39 70 98 0 66-23 100-70 100C84 3 66-7 56-30L54 0H23l1-261h32v101c10-23 28-34 59-34zm-8 174c40 0 45-34 45-75 0-40-5-75-45-74-42 0-51 32-51 76 0 43 10 73 51 73" id="W"/><path fill="#3d4752" d="M84 4C-5 8 30-112 23-190h32v120c0 31 7 50 39 49 72-2 45-101 50-169h31l1 190h-30c-1-10 1-25-2-33-11 22-28 36-60 37" id="X"/><path fill="#3d4752" d="M59-47c-2 24 18 29 38 22v24C64 9 27 4 27-40v-127H5v-23h24l9-43h21v43h35v23H59v120" id="Y"/><g id="a"><use transform="matrix(0.05,0,0,0.05,0,0)" xlink:href="#U"/><use transform="matrix(0.05,0,0,0.05,12.950000000000001,0)" xlink:href="#V"/><use transform="matrix(0.05,0,0,0.05,22.950000000000003,0)" xlink:href="#W"/><use transform="matrix(0.05,0,0,0.05,32.95,0)" xlink:href="#X"/><use transform="matrix(0.05,0,0,0.05,42.95,0)" xlink:href="#Y"/></g><path fill="#fff" d="M33 0v-248h34V0H33" id="Z"/><path fill="#fff" d="M210-169c-67 3-38 105-44 169h-31v-121c0-29-5-50-35-48C34-165 62-65 56 0H25l-1-190h30c1 10-1 24 2 32 10-44 99-50 107 0 11-21 27-35 58-36 85-2 47 119 55 194h-31v-121c0-29-5-49-35-48" id="aa"/><path fill="#fff" d="M115-194c55 1 70 41 70 98S169 2 115 4C84 4 66-9 55-30l1 105H24l-1-265h31l2 30c10-21 28-34 59-34zm-8 174c40 0 45-34 45-75s-6-73-45-74c-42 0-51 32-51 76 0 43 10 73 51 73" id="ab"/><path fill="#fff" d="M100-194c62-1 85 37 85 99 1 63-27 99-86 99S16-35 15-95c0-66 28-99 85-99zM99-20c44 1 53-31 53-75 0-43-8-75-51-75s-53 32-53 75 10 74 51 75" id="ac"/><path fill="#fff" d="M114-163C36-179 61-72 57 0H25l-1-190h30c1 12-1 29 2 39 6-27 23-49 58-41v29" id="ad"/><path fill="#fff" d="M59-47c-2 24 18 29 38 22v24C64 9 27 4 27-40v-127H5v-23h24l9-43h21v43h35v23H59v120" id="ae"/><path fill="#fff" d="M100-194c63 0 86 42 84 106H49c0 40 14 67 53 68 26 1 43-12 49-29l28 8c-11 28-37 45-77 45C44 4 14-33 15-96c1-61 26-98 85-98zm52 81c6-60-76-77-97-28-3 7-6 17-6 28h103" id="af"/><g id="b"><use transform="matrix(0.05,0,0,0.05,0,0)" xlink:href="#Z"/><use transform="matrix(0.05,0,0,0.05,5,0)" xlink:href="#aa"/><use transform="matrix(0.05,0,0,0.05,19.950000000000003,0)" xlink:href="#ab"/><use transform="matrix(0.05,0,0,0.05,29.950000000000003,0)" xlink:href="#ac"/><use transform="matrix(0.05,0,0,0.05,39.95,0)" xlink:href="#ad"/><use transform="matrix(0.05,0,0,0.05,45.900000000000006,0)" xlink:href="#ae"/><use transform="matrix(0.05,0,0,0.05,50.900000000000006,0)" xlink:href="#af"/><use transform="matrix(0.05,0,0,0.05,60.900000000000006,0)" xlink:href="#ad"/></g><path fill="#fff" d="M24 0v-261h32V0H24" id="ag"/><path fill="#fff" d="M135-143c-3-34-86-38-87 0 15 53 115 12 119 90S17 21 10-45l28-5c4 36 97 45 98 0-10-56-113-15-118-90-4-57 82-63 122-42 12 7 21 19 24 35" id="ah"/><g id="c"><use transform="matrix(0.05,0,0,0.05,0,0)" xlink:href="#ag"/><use transform="matrix(0.05,0,0,0.05,3.95,0)" xlink:href="#af"/><use transform="matrix(0.05,0,0,0.05,13.949999999999998,0)" xlink:href="#ah"/></g><path fill="#fff" d="M100-194c63 0 86 42 84 106H49c0 40 14 67 53 68 26 1 43-12 49-29l28 8c-11 28-37 45-77 45C44 4 14-33 15-96c1-61 26-98 85-98zm52 81c6-60-76-77-97-28-3 7-6 17-6 28h103zm-74-98c8-23 27-35 38-54h36v5l-58 49H78" id="ai"/><path fill="#fff" d="M84 4C-5 8 30-112 23-190h32v120c0 31 7 50 39 49 72-2 45-101 50-169h31l1 190h-30c-1-10 1-25-2-33-11 22-28 36-60 37" id="aj"/><path fill="#fff" d="M85-194c31 0 48 13 60 33l-1-100h32l1 261h-30c-2-10 0-23-3-31C134-8 116 4 85 4 32 4 16-35 15-94c0-66 23-100 70-100zm9 24c-40 0-46 34-46 75 0 40 6 74 45 74 42 0 51-32 51-76 0-42-9-74-50-73" id="ak"/><path fill="#fff" d="M24-231v-30h32v30H24zM24 0v-190h32V0H24" id="al"/><path fill="#fff" d="M141-36C126-15 110 5 73 4 37 3 15-17 15-53c-1-64 63-63 125-63 3-35-9-54-41-54-24 1-41 7-42 31l-33-3c5-37 33-52 76-52 45 0 72 20 72 64v82c-1 20 7 32 28 27v20c-31 9-61-2-59-35zM48-53c0 20 12 33 32 33 41-3 63-29 60-74-43 2-92-5-92 41" id="am"/><path fill="#fff" d="M117-194c89-4 53 116 60 194h-32v-121c0-31-8-49-39-48C34-167 62-67 57 0H25l-1-190h30c1 10-1 24 2 32 11-22 29-35 61-36" id="an"/><g id="d"><use transform="matrix(0.05,0,0,0.05,0,0)" xlink:href="#ai"/><use transform="matrix(0.05,0,0,0.05,10,0)" xlink:href="#ae"/><use transform="matrix(0.05,0,0,0.05,15,0)" xlink:href="#aj"/><use transform="matrix(0.05,0,0,0.05,25,0)" xlink:href="#ak"/><use transform="matrix(0.05,0,0,0.05,35,0)" xlink:href="#al"/><use transform="matrix(0.05,0,0,0.05,38.95,0)" xlink:href="#am"/><use transform="matrix(0.05,0,0,0.05,48.95,0)" xlink:href="#an"/><use transform="matrix(0.05,0,0,0.05,58.95,0)" xlink:href="#ae"/><use transform="matrix(0.05,0,0,0.05,63.95,0)" xlink:href="#ah"/></g><path fill="#fff" d="M233-177c-1 41-23 64-60 70L243 0h-38l-65-103H63V0H30v-248c88 3 205-21 203 71zM63-129c60-2 137 13 137-47 0-61-80-42-137-45v92" id="ao"/><g id="e"><use transform="matrix(0.05,0,0,0.05,0,0)" xlink:href="#ao"/><use transform="matrix(0.05,0,0,0.05,12.950000000000001,0)" xlink:href="#ai"/><use transform="matrix(0.05,0,0,0.05,22.950000000000003,0)" xlink:href="#al"/><use transform="matrix(0.05,0,0,0.05,26.900000000000002,0)" xlink:href="#an"/><use transform="matrix(0.05,0,0,0.05,36.900000000000006,0)" xlink:href="#al"/><use transform="matrix(0.05,0,0,0.05,40.85000000000001,0)" xlink:href="#ae"/><use transform="matrix(0.05,0,0,0.05,45.85000000000001,0)" xlink:href="#al"/><use transform="matrix(0.05,0,0,0.05,49.80000000000001,0)" xlink:href="#am"/><use transform="matrix(0.05,0,0,0.05,59.80000000000001,0)" xlink:href="#ag"/><use transform="matrix(0.05,0,0,0.05,63.750000000000014,0)" xlink:href="#al"/><use transform="matrix(0.05,0,0,0.05,67.70000000000002,0)" xlink:href="#ah"/><use transform="matrix(0.05,0,0,0.05,76.70000000000002,0)" xlink:href="#am"/><use transform="matrix(0.05,0,0,0.05,86.70000000000002,0)" xlink:href="#ae"/><use transform="matrix(0.05,0,0,0.05,91.70000000000002,0)" xlink:href="#al"/><use transform="matrix(0.05,0,0,0.05,95.65000000000002,0)" xlink:href="#ac"/><use transform="matrix(0.05,0,0,0.05,105.65000000000003,0)" xlink:href="#an"/></g><g id="f"><use transform="matrix(0.05,0,0,0.05,0,0)" xlink:href="#ak"/><use transform="matrix(0.05,0,0,0.05,10,0)" xlink:href="#af"/><use transform="matrix(0.05,0,0,0.05,20,0)" xlink:href="#ah"/></g><path fill="#333" d="M30 0v-248h33v221h125V0H30" id="ap"/><path fill="#333" d="M100-194c63 0 86 42 84 106H49c0 40 14 67 53 68 26 1 43-12 49-29l28 8c-11 28-37 45-77 45C44 4 14-33 15-96c1-61 26-98 85-98zm52 81c6-60-76-77-97-28-3 7-6 17-6 28h103" id="aq"/><g id="g"><use transform="matrix(0.05,0,0,0.05,0,0)" xlink:href="#ap"/><use transform="matrix(0.05,0,0,0.05,10,0)" xlink:href="#aq"/></g><path fill="#333" d="M101-234c-31-9-42 10-38 44h38v23H63V0H32v-167H5v-23h27c-7-52 17-82 69-68v24" id="ar"/><path fill="#333" d="M24-231v-30h32v30H24zM24 0v-190h32V0H24" id="as"/><path fill="#333" d="M96-169c-40 0-48 33-48 73s9 75 48 75c24 0 41-14 43-38l32 2c-6 37-31 61-74 61-59 0-76-41-82-99-10-93 101-131 147-64 4 7 5 14 7 22l-32 3c-4-21-16-35-41-35" id="at"/><path fill="#333" d="M106-169C34-169 62-67 57 0H25v-261h32l-1 103c12-21 28-36 61-36 89 0 53 116 60 194h-32v-121c2-32-8-49-39-48" id="au"/><path fill="#333" d="M114-163C36-179 61-72 57 0H25l-1-190h30c1 12-1 29 2 39 6-27 23-49 58-41v29" id="av"/><g id="h"><use transform="matrix(0.05,0,0,0.05,0,0)" xlink:href="#ar"/><use transform="matrix(0.05,0,0,0.05,5,0)" xlink:href="#as"/><use transform="matrix(0.05,0,0,0.05,8.95,0)" xlink:href="#at"/><use transform="matrix(0.05,0,0,0.05,17.95,0)" xlink:href="#au"/><use transform="matrix(0.05,0,0,0.05,27.950000000000003,0)" xlink:href="#as"/><use transform="matrix(0.05,0,0,0.05,31.899999999999995,0)" xlink:href="#aq"/><use transform="matrix(0.05,0,0,0.05,41.9,0)" xlink:href="#av"/></g><path fill="#333" d="M100-194c62-1 85 37 85 99 1 63-27 99-86 99S16-35 15-95c0-66 28-99 85-99zM99-20c44 1 53-31 53-75 0-43-8-75-51-75s-53 32-53 75 10 74 51 75" id="aw"/><path fill="#333" d="M135-143c-3-34-86-38-87 0 15 53 115 12 119 90S17 21 10-45l28-5c4 36 97 45 98 0-10-56-113-15-118-90-4-57 82-63 122-42 12 7 21 19 24 35" id="ax"/><path fill="#333" d="M115-194c55 1 70 41 70 98S169 2 115 4C84 4 66-9 55-30l1 105H24l-1-265h31l2 30c10-21 28-34 59-34zm-8 174c40 0 45-34 45-75s-6-73-45-74c-42 0-51 32-51 76 0 43 10 73 51 73" id="ay"/><path fill="#333" d="M117-194c89-4 53 116 60 194h-32v-121c0-31-8-49-39-48C34-167 62-67 57 0H25l-1-190h30c1 10-1 24 2 32 11-22 29-35 61-36" id="az"/><path fill="#333" d="M85-194c31 0 48 13 60 33l-1-100h32l1 261h-30c-2-10 0-23-3-31C134-8 116 4 85 4 32 4 16-35 15-94c0-66 23-100 70-100zm9 24c-40 0-46 34-46 75 0 40 6 74 45 74 42 0 51-32 51-76 0-42-9-74-50-73" id="aA"/><path fill="#333" d="M16-82v-28h88v28H16" id="aB"/><path fill="#333" d="M59-47c-2 24 18 29 38 22v24C64 9 27 4 27-40v-127H5v-23h24l9-43h21v43h35v23H59v120" id="aC"/><path fill="#333" d="M24 0v-261h32V0H24" id="aD"/><g id="i"><use transform="matrix(0.05,0,0,0.05,0,0)" xlink:href="#at"/><use transform="matrix(0.05,0,0,0.05,9,0)" xlink:href="#aw"/><use transform="matrix(0.05,0,0,0.05,19,0)" xlink:href="#av"/><use transform="matrix(0.05,0,0,0.05,24.95,0)" xlink:href="#av"/><use transform="matrix(0.05,0,0,0.05,30.899999999999995,0)" xlink:href="#aq"/><use transform="matrix(0.05,0,0,0.05,40.9,0)" xlink:href="#ax"/><use transform="matrix(0.05,0,0,0.05,49.9,0)" xlink:href="#ay"/><use transform="matrix(0.05,0,0,0.05,59.900000000000006,0)" xlink:href="#aw"/><use transform="matrix(0.05,0,0,0.05,69.9,0)" xlink:href="#az"/><use transform="matrix(0.05,0,0,0.05,79.9,0)" xlink:href="#aA"/><use transform="matrix(0.05,0,0,0.05,89.9,0)" xlink:href="#aB"/><use transform="matrix(0.05,0,0,0.05,95.85000000000001,0)" xlink:href="#aC"/><use transform="matrix(0.05,0,0,0.05,100.85000000000001,0)" xlink:href="#aB"/><use transform="matrix(0.05,0,0,0.05,106.80000000000001,0)" xlink:href="#as"/><use transform="matrix(0.05,0,0,0.05,110.75,0)" xlink:href="#aD"/></g><path fill="#333" d="M141-36C126-15 110 5 73 4 37 3 15-17 15-53c-1-64 63-63 125-63 3-35-9-54-41-54-24 1-41 7-42 31l-33-3c5-37 33-52 76-52 45 0 72 20 72 64v82c-1 20 7 32 28 27v20c-31 9-61-2-59-35zM48-53c0 20 12 33 32 33 41-3 63-29 60-74-43 2-92-5-92 41" id="aE"/><path fill="#333" d="M84 4C-5 8 30-112 23-190h32v120c0 31 7 50 39 49 72-2 45-101 50-169h31l1 190h-30c-1-10 1-25-2-33-11 22-28 36-60 37" id="aF"/><path fill="#333" d="M141 0L90-78 38 0H4l68-98-65-92h35l48 74 47-74h35l-64 92 68 98h-35" id="aG"/><g id="j"><use transform="matrix(0.05,0,0,0.05,0,0)" xlink:href="#aE"/><use transform="matrix(0.05,0,0,0.05,10,0)" xlink:href="#aF"/><use transform="matrix(0.05,0,0,0.05,20,0)" xlink:href="#aG"/></g><path fill="#333" d="M100-194c63 0 86 42 84 106H49c0 40 14 67 53 68 26 1 43-12 49-29l28 8c-11 28-37 45-77 45C44 4 14-33 15-96c1-61 26-98 85-98zm52 81c6-60-76-77-97-28-3 7-6 17-6 28h103zm-36-98l-58-49v-5h36c12 19 30 32 38 54h-16" id="aH"/><g id="k"><use transform="matrix(0.05,0,0,0.05,0,0)" xlink:href="#at"/><use transform="matrix(0.05,0,0,0.05,9,0)" xlink:href="#as"/><use transform="matrix(0.05,0,0,0.05,12.949999999999998,0)" xlink:href="#av"/><use transform="matrix(0.05,0,0,0.05,18.9,0)" xlink:href="#aC"/><use transform="matrix(0.05,0,0,0.05,23.9,0)" xlink:href="#aH"/><use transform="matrix(0.05,0,0,0.05,33.9,0)" xlink:href="#av"/><use transform="matrix(0.05,0,0,0.05,39.85,0)" xlink:href="#aq"/><use transform="matrix(0.05,0,0,0.05,49.85,0)" xlink:href="#ax"/></g><path fill="#333" d="M103-251c84 0 111 97 45 133-19 10-37 24-39 52H78c0-63 77-55 77-114 0-30-21-42-52-43-32 0-53 17-56 46l-32-2c7-45 34-72 88-72zM77 0v-35h34V0H77" id="aI"/><use transform="matrix(0.05,0,0,0.05,0,0)" xlink:href="#aI" id="l"/><path fill="#fff" d="M205 0l-28-72H64L36 0H1l101-248h38L239 0h-34zm-38-99l-47-123c-12 45-31 82-46 123h93" id="aJ"/><path fill="#fff" d="M101-234c-31-9-42 10-38 44h38v23H63V0H32v-167H5v-23h27c-7-52 17-82 69-68v24" id="aK"/><path fill="#fff" d="M96-169c-40 0-48 33-48 73s9 75 48 75c24 0 41-14 43-38l32 2c-6 37-31 61-74 61-59 0-76-41-82-99-10-93 101-131 147-64 4 7 5 14 7 22l-32 3c-4-21-16-35-41-35" id="aL"/><path fill="#fff" d="M106-169C34-169 62-67 57 0H25v-261h32l-1 103c12-21 28-36 61-36 89 0 53 116 60 194h-32v-121c2-32-8-49-39-48" id="aM"/><path fill="#fff" d="M177-190C167-65 218 103 67 71c-23-6-38-20-44-43l32-5c15 47 100 32 89-28v-30C133-14 115 1 83 1 29 1 15-40 15-95c0-56 16-97 71-98 29-1 48 16 59 35 1-10 0-23 2-32h30zM94-22c36 0 50-32 50-73 0-42-14-75-50-75-39 0-46 34-46 75s6 73 46 73" id="aN"/><g id="m"><use transform="matrix(0.05,0,0,0.05,0,0)" xlink:href="#aJ"/><use transform="matrix(0.05,0,0,0.05,12,0)" xlink:href="#aK"/><use transform="matrix(0.05,0,0,0.05,16.65,0)" xlink:href="#aK"/><use transform="matrix(0.05,0,0,0.05,21.65,0)" xlink:href="#al"/><use transform="matrix(0.05,0,0,0.05,25.599999999999998,0)" xlink:href="#aL"/><use transform="matrix(0.05,0,0,0.05,34.599999999999994,0)" xlink:href="#aM"/><use transform="matrix(0.05,0,0,0.05,44.599999999999994,0)" xlink:href="#am"/><use transform="matrix(0.05,0,0,0.05,54.599999999999994,0)" xlink:href="#aN"/><use transform="matrix(0.05,0,0,0.05,64.6,0)" xlink:href="#af"/></g><g id="n"><use transform="matrix(0.05,0,0,0.05,0,0)" xlink:href="#ai"/><use transform="matrix(0.05,0,0,0.05,10,0)" xlink:href="#ae"/><use transform="matrix(0.05,0,0,0.05,15,0)" xlink:href="#aj"/><use transform="matrix(0.05,0,0,0.05,25,0)" xlink:href="#ak"/><use transform="matrix(0.05,0,0,0.05,35,0)" xlink:href="#al"/><use transform="matrix(0.05,0,0,0.05,38.95,0)" xlink:href="#am"/><use transform="matrix(0.05,0,0,0.05,48.95,0)" xlink:href="#an"/><use transform="matrix(0.05,0,0,0.05,58.95,0)" xlink:href="#ae"/><use transform="matrix(0.05,0,0,0.05,63.95,0)" xlink:href="#ah"/></g><g id="o"><use transform="matrix(0.05,0,0,0.05,0,0)" xlink:href="#ak"/><use transform="matrix(0.05,0,0,0.05,10,0)" xlink:href="#am"/><use transform="matrix(0.05,0,0,0.05,20,0)" xlink:href="#an"/><use transform="matrix(0.05,0,0,0.05,30,0)" xlink:href="#ah"/></g><g id="p"><use transform="matrix(0.05,0,0,0.05,0,0)" xlink:href="#aj"/><use transform="matrix(0.05,0,0,0.05,10,0)" xlink:href="#an"/></g><path fill="#fff" d="M115-194c53 0 69 39 70 98 0 66-23 100-70 100C84 3 66-7 56-30L54 0H23l1-261h32v101c10-23 28-34 59-34zm-8 174c40 0 45-34 45-75 0-40-5-75-45-74-42 0-51 32-51 76 0 43 10 73 51 73" id="aO"/><g id="q"><use transform="matrix(0.05,0,0,0.05,0,0)" xlink:href="#ae"/><use transform="matrix(0.05,0,0,0.05,5,0)" xlink:href="#am"/><use transform="matrix(0.05,0,0,0.05,15,0)" xlink:href="#aO"/><use transform="matrix(0.05,0,0,0.05,25,0)" xlink:href="#ag"/><use transform="matrix(0.05,0,0,0.05,28.950000000000003,0)" xlink:href="#af"/><use transform="matrix(0.05,0,0,0.05,38.95,0)" xlink:href="#am"/><use transform="matrix(0.05,0,0,0.05,48.95,0)" xlink:href="#aj"/></g><path fill="#333" d="M205 0l-28-72H64L36 0H1l101-248h38L239 0h-34zm-38-99l-47-123c-12 45-31 82-46 123h93" id="aP"/><path fill="#333" d="M100-194c63 0 86 42 84 106H49c0 40 14 67 53 68 26 1 43-12 49-29l28 8c-11 28-37 45-77 45C44 4 14-33 15-96c1-61 26-98 85-98zm52 81c6-60-76-77-97-28-3 7-6 17-6 28h103zm-32-149c12 18 30 30 39 51-31 2-38-20-57-30-20 10-27 32-59 30 9-22 29-33 41-51h36" id="aQ"/><g id="r"><use transform="matrix(0.05,0,0,0.05,0,0)" xlink:href="#aP"/><use transform="matrix(0.05,0,0,0.05,12,0)" xlink:href="#av"/><use transform="matrix(0.05,0,0,0.05,17.95,0)" xlink:href="#av"/><use transform="matrix(0.05,0,0,0.05,23.9,0)" xlink:href="#aQ"/><use transform="matrix(0.05,0,0,0.05,33.9,0)" xlink:href="#aC"/><use transform="matrix(0.05,0,0,0.05,38.9,0)" xlink:href="#aq"/><use transform="matrix(0.05,0,0,0.05,48.9,0)" xlink:href="#av"/></g><path fill="#333" d="M143 4C61 4 22-44 18-125c-5-107 100-154 193-111 17 8 29 25 37 43l-32 9c-13-25-37-40-76-40-61 0-88 39-88 99 0 61 29 100 91 101 35 0 62-11 79-27v-45h-74v-28h105v86C228-13 192 4 143 4" id="aR"/><path fill="#333" d="M100-194c63 0 86 42 84 106H49c0 40 14 67 53 68 26 1 43-12 49-29l28 8c-11 28-37 45-77 45C44 4 14-33 15-96c1-61 26-98 85-98zm52 81c6-60-76-77-97-28-3 7-6 17-6 28h103zm-74-98c8-23 27-35 38-54h36v5l-58 49H78" id="aS"/><g id="s"><use transform="matrix(0.05,0,0,0.05,0,0)" xlink:href="#aR"/><use transform="matrix(0.05,0,0,0.05,14,0)" xlink:href="#aS"/><use transform="matrix(0.05,0,0,0.05,24,0)" xlink:href="#az"/><use transform="matrix(0.05,0,0,0.05,34,0)" xlink:href="#aS"/><use transform="matrix(0.05,0,0,0.05,44,0)" xlink:href="#av"/><use transform="matrix(0.05,0,0,0.05,49.95,0)" xlink:href="#aE"/><use transform="matrix(0.05,0,0,0.05,59.95,0)" xlink:href="#aC"/><use transform="matrix(0.05,0,0,0.05,64.95,0)" xlink:href="#as"/><use transform="matrix(0.05,0,0,0.05,68.9,0)" xlink:href="#aw"/><use transform="matrix(0.05,0,0,0.05,78.9,0)" xlink:href="#az"/></g><g id="t"><use transform="matrix(0.05,0,0,0.05,0,0)" xlink:href="#aA"/><use transform="matrix(0.05,0,0,0.05,10,0)" xlink:href="#aq"/><use transform="matrix(0.05,0,0,0.05,20,0)" xlink:href="#ax"/></g><path fill="#333" d="M115-194c53 0 69 39 70 98 0 66-23 100-70 100C84 3 66-7 56-30L54 0H23l1-261h32v101c10-23 28-34 59-34zm-8 174c40 0 45-34 45-75 0-40-5-75-45-74-42 0-51 32-51 76 0 43 10 73 51 73" id="aT"/><path fill="#333" d="M100-194c62-1 85 37 85 99 1 63-27 99-86 99S16-35 15-95c0-66 28-99 85-99zM99-20c44 1 53-31 53-75 0-43-8-75-51-75s-53 32-53 75 10 74 51 75zm20-242c12 18 30 30 39 51-31 2-38-20-57-30-20 10-27 32-59 30 9-22 29-33 41-51h36" id="aU"/><path fill="#333" d="M210-169c-67 3-38 105-44 169h-31v-121c0-29-5-50-35-48C34-165 62-65 56 0H25l-1-190h30c1 10-1 24 2 32 10-44 99-50 107 0 11-21 27-35 58-36 85-2 47 119 55 194h-31v-121c0-29-5-49-35-48" id="aV"/><g id="u"><use transform="matrix(0.05,0,0,0.05,0,0)" xlink:href="#aT"/><use transform="matrix(0.05,0,0,0.05,10,0)" xlink:href="#as"/><use transform="matrix(0.05,0,0,0.05,13.949999999999998,0)" xlink:href="#az"/><use transform="matrix(0.05,0,0,0.05,23.95,0)" xlink:href="#aU"/><use transform="matrix(0.05,0,0,0.05,33.95,0)" xlink:href="#aV"/><use transform="matrix(0.05,0,0,0.05,48.900000000000006,0)" xlink:href="#aq"/><use transform="matrix(0.05,0,0,0.05,58.900000000000006,0)" xlink:href="#ax"/></g><path fill="#333" d="M140-251c80 0 125 45 125 126S219 4 139 4C58 4 15-44 15-125s44-126 125-126zm-1 214c52 0 73-35 73-88 0-50-21-86-72-86-52 0-73 35-73 86s22 88 72 88" id="aW"/><path fill="#333" d="M238-95c0 69-44 99-111 99C63 4 22-25 22-93v-155h51v151c-1 38 19 59 55 60 90 1 49-130 58-211h52v153" id="aX"/><path fill="#333" d="M24 0v-248h52V0H24" id="aY"/><g id="v"><use transform="matrix(0.04320987654320988,0,0,0.04320987654320988,0,0)" xlink:href="#aW"/><use transform="matrix(0.04320987654320988,0,0,0.04320987654320988,12.098765432098766,0)" xlink:href="#aX"/><use transform="matrix(0.04320987654320988,0,0,0.04320987654320988,23.290123456790127,0)" xlink:href="#aY"/></g><path fill="#333" d="M175 0L67-191c6 58 2 128 3 191H24v-248h59L193-55c-6-58-2-129-3-193h46V0h-61" id="aZ"/><g id="w"><use transform="matrix(0.04320987654320988,0,0,0.04320987654320988,0,0)" xlink:href="#aZ"/><use transform="matrix(0.04320987654320988,0,0,0.04320987654320988,11.19135802469136,0)" xlink:href="#aW"/><use transform="matrix(0.04320987654320988,0,0,0.04320987654320988,23.290123456790127,0)" xlink:href="#aZ"/></g><path fill="#a9afb8" d="M136-208V0H84v-208H4v-40h212v40h-80" id="ba"/><path fill="#a9afb8" d="M24-248c93 1 206-16 204 79-1 75-69 88-152 82V0H24v-248zm52 121c47 0 100 7 100-41 0-47-54-39-100-39v80" id="bb"/><g id="x"><use transform="matrix(0.0728395061728395,0,0,0.0728395061728395,0,0)" xlink:href="#ba"/><use transform="matrix(0.0728395061728395,0,0,0.0728395061728395,15.95185185185185,0)" xlink:href="#bb"/></g><path fill="#a9afb8" d="M14-72v-43h91v43H14" id="bc"/><use transform="matrix(0.0728395061728395,0,0,0.0728395061728395,0,0)" xlink:href="#bc" id="y"/><path fill="#a9afb8" d="M67-125c0 53 21 87 73 88 37 1 54-22 65-47l45 17C233-25 199 4 140 4 58 4 20-42 15-125 8-235 124-281 211-232c18 10 29 29 36 50l-46 12c-8-25-30-41-62-41-52 0-71 34-72 86" id="bd"/><path fill="#a9afb8" d="M135-150c-39-12-60 13-60 57V0H25l-1-190h47c2 13-1 29 3 40 6-28 27-53 61-41v41" id="be"/><path fill="#a9afb8" d="M185-48c-13 30-37 53-82 52C43 2 14-33 14-96s30-98 90-98c62 0 83 45 84 108H66c0 31 8 55 39 56 18 0 30-7 34-22zm-45-69c5-46-57-63-70-21-2 6-4 13-4 21h74zm-67-91v-5l45-51h45v8l-60 48H73" id="bf"/><path fill="#a9afb8" d="M133-34C117-15 103 5 69 4 32 3 11-16 11-54c-1-60 55-63 116-61 1-26-3-47-28-47-18 1-26 9-28 27l-52-2c7-38 36-58 82-57s74 22 75 68l1 82c-1 14 12 18 25 15v27c-30 8-71 5-69-32zm-48 3c29 0 43-24 42-57-32 0-66-3-65 30 0 17 8 27 23 27" id="bg"/><path fill="#a9afb8" d="M115-3C79 11 28 4 28-45v-112H4v-33h27l15-45h31v45h36v33H77v99c-1 23 16 31 38 25v30" id="bh"/><path fill="#a9afb8" d="M185-48c-13 30-37 53-82 52C43 2 14-33 14-96s30-98 90-98c62 0 83 45 84 108H66c0 31 8 55 39 56 18 0 30-7 34-22zm-45-69c5-46-57-63-70-21-2 6-4 13-4 21h74" id="bi"/><path fill="#a9afb8" d="M85 4C-2 5 27-109 22-190h50c7 57-23 150 33 157 60-5 35-97 40-157h50l1 190h-47c-2-12 1-28-3-38-12 25-28 42-61 42" id="bj"/><g id="z"><use transform="matrix(0.0728395061728395,0,0,0.0728395061728395,0,0)" xlink:href="#bd"/><use transform="matrix(0.0728395061728395,0,0,0.0728395061728395,18.86543209876543,0)" xlink:href="#be"/><use transform="matrix(0.0728395061728395,0,0,0.0728395061728395,29.062962962962963,0)" xlink:href="#bf"/><use transform="matrix(0.0728395061728395,0,0,0.0728395061728395,43.63086419753086,0)" xlink:href="#bg"/><use transform="matrix(0.0728395061728395,0,0,0.0728395061728395,58.19876543209875,0)" xlink:href="#bh"/><use transform="matrix(0.0728395061728395,0,0,0.0728395061728395,66.86666666666666,0)" xlink:href="#bi"/><use transform="matrix(0.0728395061728395,0,0,0.0728395061728395,81.43456790123457,0)" xlink:href="#bj"/><use transform="matrix(0.0728395061728395,0,0,0.0728395061728395,97.38641975308641,0)" xlink:href="#be"/></g><path fill="#a9afb8" d="M88-194c31-1 46 15 58 34l-1-101h50l1 261h-48c-2-10 0-23-3-31C134-8 116 4 84 4 32 4 16-41 15-95c0-56 19-97 73-99zm17 164c33 0 40-30 41-66 1-37-9-64-41-64s-38 30-39 65c0 43 13 65 39 65" id="bk"/><g id="A"><use transform="matrix(0.0728395061728395,0,0,0.0728395061728395,0,0)" xlink:href="#bk"/><use transform="matrix(0.0728395061728395,0,0,0.0728395061728395,15.95185185185185,0)" xlink:href="#bi"/></g><path fill="#a9afb8" d="M135-194c52 0 70 43 70 98 0 56-19 99-73 100-30 1-46-15-58-35L72 0H24l1-261h50v104c11-23 29-37 60-37zM114-30c31 0 40-27 40-66 0-37-7-63-39-63s-41 28-41 65c0 36 8 64 40 64" id="bl"/><path fill="#a9afb8" d="M25-224v-37h50v37H25zM25 0v-190h50V0H25" id="bm"/><path fill="#a9afb8" d="M135-194c87-1 58 113 63 194h-50c-7-57 23-157-34-157-59 0-34 97-39 157H25l-1-190h47c2 12-1 28 3 38 12-26 28-41 61-42" id="bn"/><path fill="#a9afb8" d="M110-194c64 0 96 36 96 99 0 64-35 99-97 99-61 0-95-36-95-99 0-62 34-99 96-99zm-1 164c35 0 45-28 45-65 0-40-10-65-43-65-34 0-45 26-45 65 0 36 10 65 43 65zm66-183v5h-28c-13-11-23-24-37-34l-37 34H45c9-26 32-39 45-61h41" id="bo"/><path fill="#a9afb8" d="M220-157c-53 9-28 100-34 157h-49v-107c1-27-5-49-29-50C55-147 81-57 75 0H25l-1-190h47c2 12-1 28 3 38 10-53 101-56 108 0 13-22 24-43 59-42 82 1 51 116 57 194h-49v-107c-1-25-5-48-29-50" id="bp"/><path fill="#a9afb8" d="M137-138c1-29-70-34-71-4 15 46 118 7 119 86 1 83-164 76-172 9l43-7c4 19 20 25 44 25 33 8 57-30 24-41C81-84 22-81 20-136c-2-80 154-74 161-7" id="bq"/><g id="B"><use transform="matrix(0.0728395061728395,0,0,0.0728395061728395,0,0)" xlink:href="#bl"/><use transform="matrix(0.0728395061728395,0,0,0.0728395061728395,15.95185185185185,0)" xlink:href="#bm"/><use transform="matrix(0.0728395061728395,0,0,0.0728395061728395,23.235802469135802,0)" xlink:href="#bn"/><use transform="matrix(0.0728395061728395,0,0,0.0728395061728395,39.187654320987654,0)" xlink:href="#bo"/><use transform="matrix(0.0728395061728395,0,0,0.0728395061728395,55.1395061728395,0)" xlink:href="#bp"/><use transform="matrix(0.0728395061728395,0,0,0.0728395061728395,78.44814814814815,0)" xlink:href="#bi"/><use transform="matrix(0.0728395061728395,0,0,0.0728395061728395,93.01604938271605,0)" xlink:href="#bq"/></g><path fill="#a9afb8" d="M240 0l2-218c-23 76-54 145-80 218h-23L58-218 59 0H30v-248h44l77 211c21-75 51-140 76-211h43V0h-30" id="br"/><path fill="#a9afb8" d="M141-36C126-15 110 5 73 4 37 3 15-17 15-53c-1-64 63-63 125-63 3-35-9-54-41-54-24 1-41 7-42 31l-33-3c5-37 33-52 76-52 45 0 72 20 72 64v82c-1 20 7 32 28 27v20c-31 9-61-2-59-35zM48-53c0 20 12 33 32 33 41-3 63-29 60-74-43 2-92-5-92 41" id="bs"/><path fill="#a9afb8" d="M141 0L90-78 38 0H4l68-98-65-92h35l48 74 47-74h35l-64 92 68 98h-35" id="bt"/><path fill="#a9afb8" d="M24-231v-30h32v30H24zM24 0v-190h32V0H24" id="bu"/><path fill="#a9afb8" d="M210-169c-67 3-38 105-44 169h-31v-121c0-29-5-50-35-48C34-165 62-65 56 0H25l-1-190h30c1 10-1 24 2 32 10-44 99-50 107 0 11-21 27-35 58-36 85-2 47 119 55 194h-31v-121c0-29-5-49-35-48" id="bv"/><path fill="#a9afb8" d="M100-194c63 0 86 42 84 106H49c0 40 14 67 53 68 26 1 43-12 49-29l28 8c-11 28-37 45-77 45C44 4 14-33 15-96c1-61 26-98 85-98zm52 81c6-60-76-77-97-28-3 7-6 17-6 28h103" id="bw"/><g id="C"><use transform="matrix(0.04248971193415638,0,0,0.04248971193415638,0,0)" xlink:href="#br"/><use transform="matrix(0.04248971193415638,0,0,0.04248971193415638,12.704423868312757,0)" xlink:href="#bs"/><use transform="matrix(0.04248971193415638,0,0,0.04248971193415638,21.20236625514403,0)" xlink:href="#bt"/><use transform="matrix(0.04248971193415638,0,0,0.04248971193415638,28.85051440329218,0)" xlink:href="#bu"/><use transform="matrix(0.04248971193415638,0,0,0.04248971193415638,32.20720164609053,0)" xlink:href="#bv"/><use transform="matrix(0.04248971193415638,0,0,0.04248971193415638,44.91162551440329,0)" xlink:href="#bw"/></g><path fill="#a9afb8" d="M30-248c118-7 216 8 213 122C240-48 200 0 122 0H30v-248zM63-27c89 8 146-16 146-99s-60-101-146-95v194" id="bx"/><g id="D"><use transform="matrix(0.04248971193415638,0,0,0.04248971193415638,0,0)" xlink:href="#bx"/><use transform="matrix(0.04248971193415638,0,0,0.04248971193415638,11.004835390946502,0)" xlink:href="#bw"/></g><path fill="#a9afb8" d="M30-248c87 1 191-15 191 75 0 78-77 80-158 76V0H30v-248zm33 125c57 0 124 11 124-50 0-59-68-47-124-48v98" id="by"/><path fill="#a9afb8" d="M114-163C36-179 61-72 57 0H25l-1-190h30c1 12-1 29 2 39 6-27 23-49 58-41v29" id="bz"/><path fill="#a9afb8" d="M135-143c-3-34-86-38-87 0 15 53 115 12 119 90S17 21 10-45l28-5c4 36 97 45 98 0-10-56-113-15-118-90-4-57 82-63 122-42 12 7 21 19 24 35" id="bA"/><path fill="#a9afb8" d="M59-47c-2 24 18 29 38 22v24C64 9 27 4 27-40v-127H5v-23h24l9-43h21v43h35v23H59v120" id="bB"/><g id="E"><use transform="matrix(0.04248971193415638,0,0,0.04248971193415638,0,0)" xlink:href="#by"/><use transform="matrix(0.04248971193415638,0,0,0.04248971193415638,10.19753086419753,0)" xlink:href="#bz"/><use transform="matrix(0.04248971193415638,0,0,0.04248971193415638,15.25380658436214,0)" xlink:href="#bu"/><use transform="matrix(0.04248971193415638,0,0,0.04248971193415638,18.610493827160493,0)" xlink:href="#bw"/><use transform="matrix(0.04248971193415638,0,0,0.04248971193415638,27.108436213991762,0)" xlink:href="#bA"/><use transform="matrix(0.04248971193415638,0,0,0.04248971193415638,34.75658436213991,0)" xlink:href="#bB"/><use transform="matrix(0.04248971193415638,0,0,0.04248971193415638,39.005555555555546,0)" xlink:href="#bw"/><use transform="matrix(0.04248971193415638,0,0,0.04248971193415638,47.50349794238682,0)" xlink:href="#bz"/></g><path fill="#333" d="M177-190C167-65 218 103 67 71c-23-6-38-20-44-43l32-5c15 47 100 32 89-28v-30C133-14 115 1 83 1 29 1 15-40 15-95c0-56 16-97 71-98 29-1 48 16 59 35 1-10 0-23 2-32h30zM94-22c36 0 50-32 50-73 0-42-14-75-50-75-39 0-46 34-46 75s6 73 46 73" id="bC"/><g id="F"><use transform="matrix(0.05,0,0,0.05,0,0)" xlink:href="#aP"/><use transform="matrix(0.05,0,0,0.05,12,0)" xlink:href="#ar"/><use transform="matrix(0.05,0,0,0.05,16.65,0)" xlink:href="#ar"/><use transform="matrix(0.05,0,0,0.05,21.65,0)" xlink:href="#as"/><use transform="matrix(0.05,0,0,0.05,25.599999999999998,0)" xlink:href="#at"/><use transform="matrix(0.05,0,0,0.05,34.599999999999994,0)" xlink:href="#au"/><use transform="matrix(0.05,0,0,0.05,44.599999999999994,0)" xlink:href="#aE"/><use transform="matrix(0.05,0,0,0.05,54.599999999999994,0)" xlink:href="#bC"/><use transform="matrix(0.05,0,0,0.05,64.6,0)" xlink:href="#aq"/></g><g id="G"><use transform="matrix(0.05,0,0,0.05,0,0)" xlink:href="#aT"/><use transform="matrix(0.05,0,0,0.05,10,0)" xlink:href="#as"/><use transform="matrix(0.05,0,0,0.05,13.949999999999998,0)" xlink:href="#az"/><use transform="matrix(0.05,0,0,0.05,23.95,0)" xlink:href="#aU"/><use transform="matrix(0.05,0,0,0.05,33.95,0)" xlink:href="#aV"/><use transform="matrix(0.05,0,0,0.05,48.900000000000006,0)" xlink:href="#aq"/><use transform="matrix(0.05,0,0,0.05,58.900000000000006,0)" xlink:href="#ax"/></g><g id="H"><use transform="matrix(0.05,0,0,0.05,0,0)" xlink:href="#bC"/><use transform="matrix(0.05,0,0,0.05,10,0)" xlink:href="#aS"/><use transform="matrix(0.05,0,0,0.05,20,0)" xlink:href="#az"/><use transform="matrix(0.05,0,0,0.05,30,0)" xlink:href="#aS"/><use transform="matrix(0.05,0,0,0.05,40,0)" xlink:href="#av"/><use transform="matrix(0.05,0,0,0.05,45.95,0)" xlink:href="#aS"/><use transform="matrix(0.05,0,0,0.05,55.95,0)" xlink:href="#ax"/></g><path fill="#fff" d="M100-194c62-1 85 37 85 99 1 63-27 99-86 99S16-35 15-95c0-66 28-99 85-99zM99-20c44 1 53-31 53-75 0-43-8-75-51-75s-53 32-53 75 10 74 51 75zm20-242c12 18 30 30 39 51-31 2-38-20-57-30-20 10-27 32-59 30 9-22 29-33 41-51h36" id="bD"/><g id="I"><use transform="matrix(0.05,0,0,0.05,0,0)" xlink:href="#aO"/><use transform="matrix(0.05,0,0,0.05,10,0)" xlink:href="#al"/><use transform="matrix(0.05,0,0,0.05,13.949999999999998,0)" xlink:href="#an"/><use transform="matrix(0.05,0,0,0.05,23.95,0)" xlink:href="#bD"/><use transform="matrix(0.05,0,0,0.05,33.95,0)" xlink:href="#aa"/><use transform="matrix(0.05,0,0,0.05,48.900000000000006,0)" xlink:href="#af"/><use transform="matrix(0.05,0,0,0.05,58.900000000000006,0)" xlink:href="#ah"/></g><g id="J"><use transform="matrix(0.05,0,0,0.05,0,0)" xlink:href="#ao"/><use transform="matrix(0.05,0,0,0.05,12.950000000000001,0)" xlink:href="#af"/><use transform="matrix(0.05,0,0,0.05,22.950000000000003,0)" xlink:href="#aN"/><use transform="matrix(0.05,0,0,0.05,32.95,0)" xlink:href="#ai"/><use transform="matrix(0.05,0,0,0.05,42.95,0)" xlink:href="#an"/><use transform="matrix(0.05,0,0,0.05,52.95,0)" xlink:href="#ai"/><use transform="matrix(0.05,0,0,0.05,62.95,0)" xlink:href="#ad"/><use transform="matrix(0.05,0,0,0.05,68.9,0)" xlink:href="#am"/><use transform="matrix(0.05,0,0,0.05,78.9,0)" xlink:href="#ae"/><use transform="matrix(0.05,0,0,0.05,83.9,0)" xlink:href="#al"/><use transform="matrix(0.05,0,0,0.05,87.85000000000001,0)" xlink:href="#ac"/><use transform="matrix(0.05,0,0,0.05,97.85000000000001,0)" xlink:href="#an"/></g><g id="K"><use transform="matrix(0.05,0,0,0.05,0,0)" xlink:href="#ap"/><use transform="matrix(0.05,0,0,0.05,10,0)" xlink:href="#aE"/></g><g id="L"><use transform="matrix(0.05,0,0,0.05,0,0)" xlink:href="#aD"/><use transform="matrix(0.05,0,0,0.05,3.95,0)" xlink:href="#as"/><use transform="matrix(0.05,0,0,0.05,7.9,0)" xlink:href="#ax"/><use transform="matrix(0.05,0,0,0.05,16.9,0)" xlink:href="#aC"/><use transform="matrix(0.05,0,0,0.05,21.9,0)" xlink:href="#aq"/></g><path fill="#333" d="M47-170H22l-4-78h33" id="bE"/><g id="M"><use transform="matrix(0.05,0,0,0.05,0,0)" xlink:href="#aA"/><use transform="matrix(0.05,0,0,0.05,10,0)" xlink:href="#bE"/><use transform="matrix(0.05,0,0,0.05,13.4,0)" xlink:href="#aS"/><use transform="matrix(0.05,0,0,0.05,23.4,0)" xlink:href="#aC"/><use transform="matrix(0.05,0,0,0.05,28.399999999999995,0)" xlink:href="#aF"/><use transform="matrix(0.05,0,0,0.05,38.4,0)" xlink:href="#aA"/><use transform="matrix(0.05,0,0,0.05,48.4,0)" xlink:href="#as"/><use transform="matrix(0.05,0,0,0.05,52.35,0)" xlink:href="#aE"/><use transform="matrix(0.05,0,0,0.05,62.35,0)" xlink:href="#az"/><use transform="matrix(0.05,0,0,0.05,72.35,0)" xlink:href="#aC"/><use transform="matrix(0.05,0,0,0.05,77.35,0)" xlink:href="#ax"/></g><g id="N"><use transform="matrix(0.05,0,0,0.05,0,0)" xlink:href="#aq"/><use transform="matrix(0.05,0,0,0.05,10,0)" xlink:href="#ax"/><use transform="matrix(0.05,0,0,0.05,19,0)" xlink:href="#aC"/><use transform="matrix(0.05,0,0,0.05,24,0)" xlink:href="#aB"/><use transform="matrix(0.05,0,0,0.05,29.950000000000003,0)" xlink:href="#aq"/><use transform="matrix(0.05,0,0,0.05,39.95,0)" xlink:href="#aD"/><use transform="matrix(0.05,0,0,0.05,43.900000000000006,0)" xlink:href="#aD"/><use transform="matrix(0.05,0,0,0.05,47.85000000000001,0)" xlink:href="#aq"/></g><g id="O"><use transform="matrix(0.05,0,0,0.05,0,0)" xlink:href="#aq"/><use transform="matrix(0.05,0,0,0.05,10,0)" xlink:href="#az"/><use transform="matrix(0.05,0,0,0.05,20,0)" xlink:href="#at"/><use transform="matrix(0.05,0,0,0.05,29,0)" xlink:href="#aw"/><use transform="matrix(0.05,0,0,0.05,39,0)" xlink:href="#av"/><use transform="matrix(0.05,0,0,0.05,44.95,0)" xlink:href="#aq"/></g><g id="P"><use transform="matrix(0.05,0,0,0.05,0,0)" xlink:href="#ay"/><use transform="matrix(0.05,0,0,0.05,10,0)" xlink:href="#av"/><use transform="matrix(0.05,0,0,0.05,15.949999999999998,0)" xlink:href="#aS"/><use transform="matrix(0.05,0,0,0.05,25.950000000000003,0)" xlink:href="#ax"/><use transform="matrix(0.05,0,0,0.05,34.95,0)" xlink:href="#aq"/><use transform="matrix(0.05,0,0,0.05,44.95,0)" xlink:href="#az"/><use transform="matrix(0.05,0,0,0.05,54.95,0)" xlink:href="#aC"/><use transform="matrix(0.05,0,0,0.05,59.95,0)" xlink:href="#aq"/></g><g id="Q"><use transform="matrix(0.04320987654320988,0,0,0.04320987654320988,0,0)" xlink:href="#aW"/><use transform="matrix(0.04320987654320988,0,0,0.04320987654320988,12.098765432098766,0)" xlink:href="#aX"/><use transform="matrix(0.04320987654320988,0,0,0.04320987654320988,23.290123456790127,0)" xlink:href="#aY"/></g><path fill="#333" d="M190 0L58-211 59 0H30v-248h39L202-35l-2-213h31V0h-41" id="bF"/><g id="R"><use transform="matrix(0.05,0,0,0.05,0,0)" xlink:href="#bF"/><use transform="matrix(0.05,0,0,0.05,12.950000000000001,0)" xlink:href="#aw"/><use transform="matrix(0.05,0,0,0.05,22.950000000000003,0)" xlink:href="#az"/></g><path fill="#fff" d="M30 0v-248h187v28H63v79h144v27H63v87h162V0H30" id="bG"/><path fill="#fff" d="M141 0L90-78 38 0H4l68-98-65-92h35l48 74 47-74h35l-64 92 68 98h-35" id="bH"/><g id="S"><use transform="matrix(0.05,0,0,0.05,0,0)" xlink:href="#bG"/><use transform="matrix(0.05,0,0,0.05,12,0)" xlink:href="#bH"/><use transform="matrix(0.05,0,0,0.05,21,0)" xlink:href="#ab"/><use transform="matrix(0.05,0,0,0.05,31,0)" xlink:href="#ac"/><use transform="matrix(0.05,0,0,0.05,41,0)" xlink:href="#ad"/><use transform="matrix(0.05,0,0,0.05,46.95,0)" xlink:href="#ae"/><use transform="matrix(0.05,0,0,0.05,51.95,0)" xlink:href="#af"/><use transform="matrix(0.05,0,0,0.05,61.95,0)" xlink:href="#ad"/></g><g id="T"><use transform="matrix(0.05,0,0,0.05,0,0)" xlink:href="#ag"/><use transform="matrix(0.05,0,0,0.05,3.95,0)" xlink:href="#af"/><use transform="matrix(0.05,0,0,0.05,13.949999999999998,0)" xlink:href="#ah"/></g></defs></g></svg>